PathFileType	4	(X/Y/Z)	pose_F01_0-96.trc
DataRate	CameraRate	NumFrames	NumMarkers	Units	OrigDataRate	OrigDataStartFrame	OrigNumFrames
30	30	6	21	m	30	24	96
Frame#	Time	CHip			RHip			RKnee			RAnkle			RBigToe			RSmallToe			RHeel			LHip			LKnee			LAnkle			LBigToe			LSmallToe			LHeel			Neck			Nose			RShoulder			RElbow			RWrist			LShoulder			LElbow			LWrist			
		X1	Y1	Z1	X2	Y2	Z2	X3	Y3	Z3	X4	Y4	Z4	X5	Y5	Z5	X6	Y6	Z6	X7	Y7	Z7	X8	Y8	Z8	X9	Y9	Z9	X10	Y10	Z10	X11	Y11	Z11	X12	Y12	Z12	X13	Y13	Z13	X14	Y14	Z14	X15	Y15	Z15	X16	Y16	Z16	X17	Y17	Z17	X18	Y18	Z18	X19	Y19	Z19	X20	Y20	Z20	X21	Y21	Z21	
24	0.8	-0.2314368248532305	1.8806783234648343	-0.5794578526775577	-0.24447506273169686	1.8796692847547294	-0.504787318214419	-0.23301523804216295	1.7145889204256124	-0.4918563912799365	-0.2298715881985816	1.5659562251805226	-0.4782154569520706	-0.2630000077595735	1.521589641728784	-0.4526514284374171	-0.2566492513093051	1.5272365624607167	-0.4280830400620151	-0.22584465525805134	1.55796693209477	-0.48625016959378425	-0.21858113087574463	1.8839065497851493	-0.6516708497919188	-0.2126757035922137	1.7150155273180474	-0.6398008319809234	-0.20917166894630856	1.5547546180768304	-0.6390071298820026	-0.23991983583321308	1.5035785152882686	-0.6325646076254346	-0.33401825254283146	1.4848194800228285	-1.0370171641761874	-0.2032361256798952	1.542461680360899	-0.6270617941846055	-0.2187791119557336	2.060296389135019	-0.6011802722280771	-0.24660387746865545	2.131142704318537	-0.585105355077815	-0.23446560885141565	2.056947198971626	-0.5017521922878865	-1.8358724411862628	1.890994097055224	1.3272903890704628	-0.2496215191172464	1.8824267498428953	-0.4283082626451543	-0.19807482513161107	2.064576152983757	-0.7028570918858016	-0.19355460834178145	1.9719670519660126	-0.7262736951263994	-0.19524860124215876	1.881054397069237	-0.732051528661945
25	0.8333333333333334	-0.23319885712211175	1.8844366171574867	-0.5777589625310406	-0.24435313237957493	1.8823392908598677	-0.5051049205640546	-0.23320542197229854	1.7159664070605165	-0.4917989490781897	-0.2318192153276304	1.5657096177387924	-0.4760455884833562	-0.26367496947899116	1.5193946412788533	-0.45621865468736517	-0.2566492513093051	1.5272365624607167	-0.4280830400620151	-0.22492508668701094	1.5581070907996153	-0.48298922586418863	-0.22066501223798474	1.8865523955934858	-0.6497885940380018	-0.2126990391036525	1.714980764265138	-0.639807194229832	-0.2088270082729307	1.5561502528319704	-0.6396513402643367	-0.23773995593778227	1.5036119406319304	-0.6347178129627582	-0.3318335327556944	1.4843600685350988	-1.0404341746542083	-0.20123651043436885	1.5438514644069927	-0.62894201344566	-0.21877377019797656	2.0602967309760545	-0.6011692433838121	-0.24661730090902323	2.131134960950382	-0.5850554306957632	-0.23447694236445668	2.0569213650932365	-0.5016959965048652	-0.23575166342894827	1.9646870264755283	-0.4558488325207345	-0.2481571338885854	1.8817151619539563	-0.42473546726889844	-0.19893577131036305	2.064809910337488	-0.7063291967998272	-0.1935993055249121	1.9706576555901798	-0.7264103273048793	-0.19829391867047436	1.875949456866234	-0.7290333879257961
26	0.8666666666666667	-0.23241527800074324	1.881778987346796	-0.5740738838258758	-0.24547376651597427	1.8795523663700053	-0.49928168725110605	-0.2328778727784756	1.7160261326056843	-0.4921368103302573	-0.23177044810586056	1.5655407768957526	-0.4761488769044705	-0.26390454591672424	1.5206417274611883	-0.4558642046840163	-0.2566492513093051	1.5272365624607167	-0.4280830400620151	-0.22604765596958587	1.5591392730469111	-0.48599890224377523	-0.2219269268611295	1.8837474904249374	-0.644043022207364	-0.2125008834251555	1.7159946094557783	-0.6399305193115138	-0.20937734824673815	1.5562288312093893	-0.6387609897380575	-0.23670715950092464	1.5037484876902525	-0.6316057162400611	-0.22341478005575444	1.513476728761163	-0.6625383496414686	-0.2035917159383766	1.5451979351752625	-0.6265795785744572	-0.21992763471153173	2.061364987275526	-0.5964213807968324	-0.24568017912416248	2.1310057630920087	-0.582213263016964	-0.23454550619432932	2.058256845011916	-0.5021324720779662	-0.23865711156318625	1.96706985545712	-0.44871535788478734	-0.25250642474063795	1.883791258157219	-0.4209011593876828	-0.20019329180788673	2.064586915657795	-0.7005037549075988	-0.19354904391232053	1.9719681094573014	-0.7262119764463703	-0.2013196645190532	1.8794510082214237	-0.7219383345314886
27	0.9	-0.23355700833342963	1.8845775356106336	-0.5776558106078976	-0.2486034267300068	1.8823833365859846	-0.5008642673777726	-0.23355494645105138	1.718598327966288	-0.49181547314266494	-0.23180505634081877	1.5657750297031894	-0.47607980377086945	-0.2638254430894946	1.522904516289623	-0.4566529563870479	-0.2570524052993537	1.526819820053912	-0.42754528247022794	-0.2249990740004898	1.5589633961310854	-0.4826986958339075	-0.22002572969461015	1.886535199671801	-0.6466815877820049	-0.21485973122811652	1.714806622132868	-0.6375377411231307	-0.20974015875715168	1.5548243197759188	-0.6381090958288832	-0.23824513970877723	1.5036372655647676	-0.6337585912630553	-0.33182993264062743	1.4842181675375294	-1.0404148465241734	-0.2060141251468445	1.543624489695342	-0.6236874366530174	-0.22002085966067544	2.06023033583746	-0.5965056585589763	-0.24567229121166512	2.1310084221478807	-0.5822175143395448	-0.2364181708096197	2.0582221263047313	-0.5000328734348906	-0.2394793027583209	1.9679025935889138	-0.4433094704596612	-0.25398021728798253	1.8854120545461752	-0.4190821772352786	-0.20028587029688277	2.0647382370293417	-0.7010752578418182	-0.19489648820467861	1.9728853762060987	-0.7213898286035316	-0.1964657811868062	1.8837552287800037	-0.7271527251917669
28	0.9333333333333333	-0.23525341333009953	1.8790115519048876	-0.5744516163727159	-0.24821949331888885	1.876784300879996	-0.49976137204499516	-0.23503654993796252	1.714201330628516	-0.4897625414344368	-0.23079547400082445	1.5656142313817012	-0.4728756919389115	-0.26532899477588173	1.5178377331965136	-0.4540444736429041	-0.2574555592894023	1.5264030776471071	-0.42700752487844085	-0.22492076596645516	1.5587872772889921	-0.4825550705709288	-0.22404138622487751	1.8822936308349874	-0.641578338821903	-0.2149141798884315	1.7146304850830925	-0.6374472184748263	-0.20920458422110022	1.5547849523747106	-0.6390452330355147	-0.23509239673049767	1.5039311884902091	-0.6327802049802786	-0.33177097305909714	1.4842228552921868	-1.0405656484489831	-0.20516473108467062	1.5445693432244805	-0.6252624593340371	-0.21991303474025242	2.0613752252906714	-0.5964072688013493	-0.24565396327839	2.1310154810279895	-0.5821465705785384	-0.23638679789421693	2.058253371727529	-0.5000438367151404	-0.2374633697071663	1.9661876773696838	-0.4280639460230664	-0.25828837228326124	1.8861260370449753	-0.4236147529157235	-0.20022970550034355	2.0647572211728153	-0.701068758417605	-0.19521656951152921	1.9704332217580778	-0.721331897904385	-0.20638502672961528	1.8794491064582393	-0.7174837261960153
29	0.9666666666666667	-0.23525507289514738	1.8828646205448512	-0.5752355396077443	-0.24825060098477517	1.880671580219538	-0.5005603632625731	-0.23524459622282187	1.7158467685268877	-0.4896153967522675	-0.2314456854564656	1.56313441915454	-0.47660106401120106	-0.2623874659516725	1.5187703288228556	-0.45248617499749566	-0.25785871327945087	1.5259863352403022	-0.4264697672866537	-0.22556739307423254	1.5557811531146655	-0.48685003324405046	-0.22283419987291816	1.8863800003900493	-0.6474544015459917	-0.22020191904720618	1.7200577425391572	-0.6451660509050459	-0.20855473628156776	1.5619528858381018	-0.6442437677096134	-0.23455995674474972	1.5081450576504747	-0.642343995528915	-0.32961032922548644	1.4853391839908323	-1.0436764289747464	-0.2025881375375554	1.5494841830583803	-0.6322010653395647	-0.2199002741844205	2.0613740889685177	-0.596273420705109	-0.2455675479603715	2.132125063228673	-0.5820697637808029	-0.2364057417898458	2.0581328671431116	-0.49998480424896247	-0.2391109370087595	1.9695109336962813	-0.41755409642901037	-0.2624711054996036	1.8983248638032648	-0.4302526271459052	-0.19936317315222915	2.06575600854711	-0.6979720698276995	-0.19334672521305168	1.9739971416502224	-0.7266518445282896	-0.20100572554763263	1.8851665724470175	-0.7226865350356269
